<?xml version="1.0" encoding="UTF-8"?>
<!-- Generator: Adobe Illustrator 21.0.0, SVG Export Plug-In . SVG Version: 6.00 Build 0)  -->
<svg version="1.1" id="Layer_1" xmlns="http://www.w3.org/2000/svg" xmlns:xlink="http://www.w3.org/1999/xlink" x="0px" y="0px" viewBox="0 0 70.625 78.5" style="enable-background:new 0 0 70.625 78.5;" xml:space="preserve">
<style type="text/css">
	.st0{fill:#00A498;}
	.st1{fill:#FF9903;}
</style>
<g>
	<rect x="5.625" y="76.5" class="st0" width="57" height="2"/>
</g>
<g>
	<path class="st0" d="M64.725,18.062c-0.987,0-2.045-0.22-3.139-0.767c-4.32-2.161-6.409,0.531-6.429,0.559l-1.6-1.2   c1.058-1.411,4.286-3.465,8.923-1.147c3.612,1.807,6.35-1.324,6.465-1.458l1.527,1.292C69.517,16.473,67.375,18.062,64.725,18.062z   "/>
</g>
<g>
	
		<rect x="29.03" y="27.34" transform="matrix(0.9647 -0.2632 0.2632 0.9647 -6.2637 9.9191)" class="st1" width="9.725" height="2"/>
</g>
<path class="st0" d="M60.134,10.378C51.843-1.231,34.216,1.024,33.47,1.128l-0.824,0.205v11.5c-1.659-0.425-4.528-0.871-6.568,0.379  c-1.344,0.825-2.12,2.196-2.308,4.075c-0.242,2.418,0.349,4.214,1.757,5.339c2.053,1.641,5.284,1.266,7.082,0.877l0.034,11.034  l-15.018-0.021l1.128,1.413c0.013,0.028,1.191,2.75,0.369,4.625c-0.333,0.758-0.956,1.281-1.906,1.598  c-1.404,0.468-2.549,0.306-3.402-0.485c-1.29-1.194-1.592-3.418-1.22-4.904l0.311-1.243H4.666v2h5.801  c-0.12,1.927,0.461,4.2,1.989,5.615c1.389,1.285,3.306,1.611,5.394,0.914c1.496-0.498,2.541-1.403,3.105-2.691  c0.726-1.655,0.423-3.591,0.083-4.86l11.61-0.034l0,0.059L32.646,51.75l1.3-0.475c1.136-0.412,4.412-1.219,5.901-0.045  c0.693,0.545,0.961,1.559,0.8,3.012c-0.178,1.6-0.747,2.674-1.74,3.28c-2.218,1.353-5.857-0.005-5.894-0.018l-1.388-1.02  l0.016,20.137h1.984V59.492c1.581,0.375,4.262,0.988,6.316-0.262c1.539-0.937,2.445-2.542,2.693-4.771  c0.242-2.188-0.281-3.805-1.554-4.806c-1.866-1.467-4.765-1.077-6.473-0.66L34.623,36.5h13.484l-0.727-1.455  c-0.486-1.009-1.523-3.993-0.484-5.647c0.569-0.907,1.775-1.367,3.585-1.367c1.839,0,3.099,0.485,3.746,1.442  c1.132,1.674,0.333,4.648-0.071,5.653L53.604,36.5h11.369l0.066-0.928C65.819,24.672,64.122,15.96,60.134,10.378z M63.104,34.5  h-6.661c0.4-1.58,0.751-4.201-0.556-6.141c-1.041-1.546-2.86-2.329-5.407-2.329c-2.543,0-4.319,0.775-5.279,2.303  c-1.215,1.934-0.694,4.55-0.178,6.15l-10.398,0.029L34.6,20.826l-1.31,0.434c-1.236,0.409-4.81,1.169-6.517-0.197  c-0.842-0.675-1.183-1.878-1.013-3.576c0.124-1.241,0.569-2.081,1.361-2.568c1.782-1.095,5.024-0.237,6.123,0.187l1.361,0.524V3.023  c3.574-0.29,17.292-0.735,23.901,8.517C62.056,16.509,63.679,24.638,63.104,34.5z"/>
<g>
	<path class="st0" d="M48.683,77.062c-0.086-0.78-2.044-19.165,4.335-25.052c10.007-9.239,10.124-16.072,10.124-16.14l1.872-0.001   c-0.047,0.455,0.006,7.784-10.639,17.611c-5.64,5.204-3.724,23.181-3.703,23.361L48.683,77.062z"/>
</g>
<g>
	<path class="st0" d="M23.625,76.695V62.531c-2.783,0.524-9.768,1.992-12.638,1.653c-1.216-0.146-4.362-1.964-4.362-3.746   L6.667,47.5l-3.166-1.862c-0.343-0.164-2.777-1.398-3.275-3.271c-0.205-0.771-0.063-1.544,0.409-2.238   c1.25-1.835,3.028-3.757,4.91-5.792c1.601-1.731,3.255-3.519,4.61-5.297c-0.061-0.092-0.139-0.203-0.203-0.294   c-0.603-0.854-1.612-2.285-1.453-4.987c0.083-1.424,0.875-3.281,1.791-5.431c0.51-1.198,1.039-2.437,1.479-3.684   C13.85,8.749,18.449,4.54,25.07,2.471c4.934-1.542,9.209-1.357,9.386-1.351l-0.094,1.998c-0.161-0.011-16.195-0.593-20.707,12.191   c-0.461,1.306-1.002,2.575-1.524,3.802c-0.808,1.896-1.571,3.687-1.635,4.764c-0.117,2.004,0.582,2.994,1.091,3.717   c0.416,0.589,1.044,1.48,0.318,2.449c-1.444,1.926-3.197,3.82-4.892,5.653c-1.83,1.979-3.559,3.848-4.725,5.561   c-0.183,0.269-0.168,0.452-0.13,0.598c0.206,0.781,1.54,1.657,2.154,1.959L8.594,46.5l0.005,14.009   c0.428,0.655,1.937,1.607,2.625,1.689c3.242,0.39,12.98-1.564,13.079-1.585l1.292-0.113l0.031,16.18L23.625,76.695z"/>
</g>
<g>
	<path class="st1" d="M62.459,6.313c-1.727,0-3.132-1.405-3.132-3.132s1.405-3.132,3.132-3.132c1.728,0,3.133,1.405,3.133,3.132   S64.187,6.313,62.459,6.313z M62.459,2.049c-0.624,0-1.132,0.508-1.132,1.132s0.508,1.132,1.132,1.132   c0.625,0,1.133-0.508,1.133-1.132S63.084,2.049,62.459,2.049z"/>
</g>
<g>
	<g>
		<rect x="42.709" y="10.519" class="st1" width="5.729" height="2"/>
	</g>
	<g>
		<rect x="44.573" y="8.654" class="st1" width="2" height="5.729"/>
	</g>
</g>
</svg>